<?xml version="1.0" standalone="no"?>
<!DOCTYPE svg PUBLIC "-//W3C//DTD SVG 20010904//EN"
 "http://www.w3.org/TR/2001/REC-SVG-20010904/DTD/svg10.dtd">
<svg version="1.0" xmlns="http://www.w3.org/2000/svg"
 width="785.000000pt" height="1280.000000pt" viewBox="0 0 785.000000 1280.000000"
 preserveAspectRatio="xMidYMid meet">
<metadata>
Created by potrace 1.15, written by Peter Selinger 2001-2017
</metadata>
<g transform="translate(0.000000,1280.000000) scale(0.100000,-0.100000)"
fill="#fff" stroke="none">
<path d="M3755 11344 c-419 -64 -772 -243 -988 -501 -174 -210 -302 -462 -352
-698 -58 -273 -4 -638 135 -915 63 -125 136 -218 281 -361 77 -75 139 -142
139 -148 0 -6 -30 -31 -67 -54 -78 -50 -134 -109 -164 -170 -18 -37 -29 -46
-82 -66 -160 -61 -256 -129 -303 -213 -27 -50 -29 -60 -29 -163 0 -119 11
-153 72 -225 75 -90 272 -182 522 -244 80 -20 146 -37 147 -39 5 -6 -36 -1008
-46 -1127 -26 -306 -114 -612 -247 -860 -64 -119 -100 -167 -243 -316 -131
-138 -190 -223 -217 -314 -22 -76 -20 -190 6 -264 12 -33 21 -65 21 -72 0 -7
-43 -43 -96 -79 -159 -111 -325 -238 -403 -309 -162 -146 -288 -316 -340 -461
-34 -94 -56 -228 -47 -284 5 -35 1 -43 -54 -112 -73 -91 -151 -239 -182 -345
-33 -114 -33 -333 0 -449 50 -175 152 -345 327 -546 248 -284 379 -390 644
-524 966 -485 2506 -485 3472 0 265 134 396 240 644 524 175 201 277 371 327
546 33 116 33 335 0 449 -31 106 -109 254 -182 345 -55 69 -59 77 -54 112 9
56 -13 190 -47 284 -16 45 -56 122 -88 171 -125 193 -294 347 -655 599 -53 36
-96 72 -96 79 0 7 9 39 21 72 26 74 28 188 6 264 -27 92 -86 176 -222 319
-146 153 -195 221 -265 366 -127 262 -195 513 -220 805 -10 121 -51 1122 -46
1127 1 2 67 19 147 39 250 62 447 154 522 244 61 72 72 106 72 225 0 104 -2
113 -30 164 -46 84 -141 150 -302 212 -53 20 -64 29 -82 66 -30 61 -86 120
-163 170 -38 23 -68 48 -68 54 0 6 65 75 143 152 186 184 270 309 341 507 115
318 125 624 30 915 -77 239 -269 535 -443 682 -188 160 -452 286 -723 344 -91
20 -396 34 -473 23z"/>
</g>
</svg>
